<?xml version="1.0" encoding="iso-8859-1"?>
<!-- Generator: Adobe Illustrator 23.0.0, SVG Export Plug-In . SVG Version: 6.00 Build 0)  -->
<svg version="1.1" id="&#x56FE;&#x5C42;_1" xmlns="http://www.w3.org/2000/svg" xmlns:xlink="http://www.w3.org/1999/xlink" x="0px"
	 y="0px" viewBox="0 0 1024 1024" style="enable-background:new 0 0 1024 1024;" xml:space="preserve">
<path style="fill:#FFDA6A;" d="M200.672,822.704l356.57-350.715c0,0,194.028,119.344,281.891-83.469
	c7.324,138.383-142.043,194.762-142.043,194.762l-108.363,9.515l-21.965-10.98l-81.274,87.129c0,0-48.324-16.84-51.25-11.715
	c-2.929,5.125,3.66,51.984,3.66,51.984s-32.214,51.985-38.074,50.52c-5.855-2.195-65.894-8.785-65.894-8.785
	s-8.789,86.398-19.77,87.129C303.91,838.813,200.672,822.704,200.672,822.704L200.672,822.704z M200.672,822.704"/>
<path style="fill:#2C2C2C;" d="M659.016,441.239c-19.77,0-39.539-7.324-54.18-22.699c-30.02-30.02-30.02-78.344,0-108.364
	c30.019-30.019,78.344-30.019,108.359,0c30.024,30.02,30.024,78.344,0,108.364C698.555,433.184,678.785,441.239,659.016,441.239
	L659.016,441.239z M659.016,316.036c-12.45,0-24.895,4.39-34.414,13.91c-19.036,19.039-19.036,49.055,0,68.094
	c19.039,19.035,49.058,19.035,68.093,0c19.039-19.039,19.039-49.055,0-68.094C683.91,321.161,671.465,316.036,659.016,316.036
	L659.016,316.036z M314.16,854.919h-2.199l-113.488-17.571c-5.856-0.734-10.981-5.859-11.715-11.715l-17.57-113.488
	c-0.735-4.394,0.73-8.785,3.66-12.449l256.996-256.992c5.855-5.86,14.644-5.86,20.5,0c5.859,5.855,5.859,14.644,0,20.5
	L197.742,715.075l15.375,95.914l90.059,13.91l17.574-73.949c1.461-6.59,8.051-10.985,14.641-10.985l55.648,3.664l32.945-32.949
	l-13.179-50.519c-1.461-5.125,0-10.25,3.664-13.914c3.66-3.66,8.785-5.125,13.91-3.66l49.055,13.914l26.359-26.36
	c5.859-5.859,14.645-5.859,20.5,0c5.859,5.856,5.859,14.645,0,20.5l-32.215,32.215c-3.66,3.664-8.785,5.125-13.91,3.664
	l-32.949-9.519l8.785,34.414c1.465,5.121,0,10.25-3.66,13.91l-43.199,43.199c-2.926,2.926-7.321,4.391-10.981,4.391l-49.789-3.661
	l-18.305,74.684C326.605,850.528,320.75,854.919,314.16,854.919L314.16,854.919z M314.16,854.919"/>
<path style="fill:#2C2C2C;" d="M635.586,607.442c-22.699,0-45.395-3.66-68.094-10.98c-7.32-2.2-11.715-10.25-9.519-18.305
	c2.199-7.324,10.254-11.715,18.304-9.52c68.828,21.965,142.778,4.395,193.297-46.129c73.953-73.949,73.953-194.757,0-269.441
	c-73.949-73.949-194.758-73.949-269.441,0c-50.52,50.52-68.824,125.203-46.129,193.297c2.199,7.32-1.465,15.375-9.516,18.305
	c-7.324,2.195-15.379-1.465-18.304-9.52c-24.895-77.613-4.395-163.277,54.179-221.117c85.664-85.668,224.047-85.668,309.711,0
	c85.668,85.664,85.668,224.047,0,309.711C747.609,584.747,692.695,607.442,635.586,607.442L635.586,607.442z M635.586,607.442"/>
</svg>
