<?xml version="1.0" encoding="iso-8859-1"?>
<!-- Generator: Adobe Illustrator 23.0.0, SVG Export Plug-In . SVG Version: 6.00 Build 0)  -->
<svg version="1.1" id="&#x56FE;&#x5C42;_1" xmlns="http://www.w3.org/2000/svg" xmlns:xlink="http://www.w3.org/1999/xlink" x="0px"
	 y="0px" viewBox="0 0 1024 1024" style="enable-background:new 0 0 1024 1024;" xml:space="preserve">
<g>
	<g>
		<defs>
			<rect id="SVGID_1_" x="143" y="102" width="737.88" height="820.72"/>
		</defs>
		<clipPath id="SVGID_2_">
			<use xlink:href="#SVGID_1_"  style="overflow:visible;"/>
		</clipPath>
		<path style="clip-path:url(#SVGID_2_);fill:#8A8A8A;" d="M880.161,221.305v344.063c0,172.031-239.617,356.351-368.64,356.351
			c-129.024,0-368.641-182.269-368.641-356.351V221.305h36.863c0,0,81.922-2.051,167.938-32.769
			c86.015-32.77,143.359-69.633,143.359-69.633l20.481-16.383l22.527,14.336c0,0,55.297,36.863,143.359,69.633
			c83.969,32.765,165.887,32.765,167.938,32.765L880.161,221.305z M532.001,614.52h81.918c12.289,0,20.481-8.191,20.481-20.48
			c0-12.29-8.192-20.481-20.481-20.481h-81.918v-63.488C589.345,499.832,634.4,450.68,634.4,389.239
			c0-67.582-55.297-122.879-122.879-122.879c-67.586,0-122.879,55.297-122.879,122.879c0,61.441,45.054,110.593,102.398,120.832
			v247.808c0,12.289,8.192,20.481,20.481,20.481c12.289,0,20.48-8.192,20.48-20.481v-61.437h40.957
			c12.289,0,20.481-8.195,20.481-20.481c0-12.289-8.192-20.48-20.481-20.48h-40.957V614.52z M511.521,471.161
			c-45.055,0-81.922-36.864-81.922-81.922c0-45.055,36.867-81.918,81.922-81.918c45.054,0,81.918,36.863,81.918,81.918
			C593.439,434.297,556.575,471.161,511.521,471.161L511.521,471.161z M511.521,471.161"/>
	</g>
</g>
</svg>
